<?xml version="1.0" encoding="UTF-8"?>
<svg id="Layer_2" data-name="Layer 2" xmlns="http://www.w3.org/2000/svg" viewBox="0 0 77.55 77.56">
  <defs>
    <style>
      .cls-1, .cls-2 {
        fill: #075e54;
      }

      .cls-3 {
        fill: #fff;
      }

      .cls-3, .cls-2 {
        fill-rule: evenodd;
      }
    </style>
  </defs>
  <g id="Layer_1-2" data-name="Layer 1">
    <g>
      <path class="cls-2" d="M38.89,0C17.57,0,.28,17.18.28,38.34c0,7.21,2.02,14,5.57,19.78L.11,74.95c-.52,1.53.92,3,2.46,2.51l17.65-5.61c5.57,3.08,11.93,4.77,18.67,4.77,21.37,0,38.66-17.13,38.66-38.28S60.26,0,38.89,0ZM38.89,70.53c-6.58,0-12.73-1.97-17.82-5.31l-8.8,2.76c-1.54.49-2.98-.99-2.46-2.51l2.83-8.26c-3.87-5.3-6.21-11.82-6.21-18.87C6.43,20.57,21.02,6.09,38.89,6.09s32.51,14.48,32.51,32.25-14.59,32.19-32.51,32.19Z"/>
      <path class="cls-3" d="M71.4,38.34c0,17.76-14.59,32.19-32.51,32.19-6.58,0-12.73-1.97-17.82-5.31l-8.8,2.76c-1.54.49-2.98-.99-2.46-2.51l2.83-8.26c-3.87-5.3-6.21-11.82-6.21-18.87C6.43,20.57,21.02,6.09,38.89,6.09s32.51,14.48,32.51,32.25Z"/>
    </g>
    <g>
      <path class="cls-1" d="M55.58,27.41l1.66,5.38c.21.69,1.07.94.46l4.96-4.3c.64-.56.34-1.61-.5-1.75l-6.63-1.08c-.74-.12-1.34.58-1.12,1.29Z"/>
      <path class="cls-1" d="M40.52,33.51c.09-2.42.19-4.6.28-6.27.03-.6-.8-.77-1.02-.22l-3.9,9.85s0,0,0,0c-7.56,6.12-9.69,7.66-9.69,7.66,0,0-.24-.47-.65-1.2,3.36-7.99,8.05-19.2,11.46-27.57,1.48-3.64,6.72-3.36,7.8.41,1.27,4.49,2.4,9.51,3.35,14.22-2.59.74-5.23,1.74-7.62,3.11Z"/>
      <path class="cls-1" d="M51.35,47.95c-.27-1-1.05-6.08-2.24-12.52,8.36-4.59,12.73-7.06,12.73-7.06,0,0-.21,0-.6.01-1.79.05-7.29.36-13.09,2.01-2.59.74-5.23,1.74-7.62,3.11-1.08.62-2.11,1.31-3.06,2.08-.55.45-1.08.88-1.58,1.28,0,0,0,0,0,0-7.56,6.12-9.69,7.66-9.69,7.66,0,0-.24-.47-.65-1.2-1.38-2.44-4.64-7.82-7.08-8.36-3.18-.69-5.08,4.26-5.08,4.26,0,0,.36.38.89,1.02,1.57,1.86,4.68,5.93,5.09,9.32.54,4.54,1.75,7.19,5.07,7.28,2.59.06,8.66-8.89,15.92-15.42-.05,6.63.23,12.83,1.4,13.81,2.64,2.22,6.83,1.73,10.06.86,1.34-.35,2.3-.74,2.97-1.08.68-.33.82-1.24.27-1.76-1.22-1.19-3.16-3.33-3.7-5.31Z"/>
      <path class="cls-1" d="M61.23,28.39c-3.79,1.19-8.26,3-12.51,5.01-2.99,1.41-5.87,2.93-8.33,4.41-.91.55-1.76,1.09-2.54,1.62-6.57,4.45-9.98,9.44-12.25,9.33-.07,0-.14-.01-.21-.02-.52-.1-1.04-.62-1.54-1.37-1.72-2.52-3.31-7.7-4.46-8.41-1.06-.67-3.72.57-5.13,1.31-.53-.64-.89-1.02-.89-1.02,0,0,1.9-4.95,5.08-4.26,2.45.54,5.71,5.92,7.08,8.36.4.73.65,1.2.65,1.2,0,0,2.12-1.55,9.69-7.66,0,0,0,0,0,0,.51-.4,1.03-.83,1.58-1.28.95-.77,1.98-1.46,3.06-2.08,2.39-1.37,5.03-2.37,7.62-3.11,5.8-1.65,11.31-1.96,13.09-2.01Z"/>
    </g>
  </g>
</svg>
